# xmcd
#
# Track frame offsets:
#	150
#	13950
#	25650
#	38785
#	55650
#	71707
#	86025
#	101700
#	119497
#	132397
#	149525
#	167772
#	182997
#
# Disc length: 2659 seconds
#
# Revision: 1
# Processed by: cddbd v1.5.2PL0 Copyright (c) Steve Scherf et al.
# Submitted via: audiograbber 1.83.01
#
DISCID=be0a610d
DTITLE=J. KIRBY's Band - Rocky Tequila
DYEAR=1997
DGENRE=Country
TTITLE0=Rocky Tequila
TTITLE1=Out Of The Frying Pan
TTITLE2=Ten To Midnight
TTITLE3=Everybody Likes Me But You
TTITLE4=Play It Anyway
TTITLE5=One Step Out Of The Time
TTITLE6=Hit And Run
TTITLE7=Run With The Buffalo
TTITLE8=Riding The Sun
TTITLE9=The Logic Of A Gun
TTITLE10=Lucky Luke
TTITLE11=I'm Walkin'
TTITLE12=We Got Love
EXTD=
EXTT0=
EXTT1=
EXTT2=
EXTT3=
EXTT4=
EXTT5=
EXTT6=
EXTT7=
EXTT8=
EXTT9=
EXTT10=
EXTT11=
EXTT12=
PLAYORDER=
